<?xml version="1.0" standalone="no"?>
<!DOCTYPE svg PUBLIC "-//W3C//DTD SVG 20010904//EN"
 "http://www.w3.org/TR/2001/REC-SVG-20010904/DTD/svg10.dtd">
<svg version="1.0" xmlns="http://www.w3.org/2000/svg"
 width="261.000000pt" height="261.000000pt" viewBox="0 0 261.000000 261.000000"
 preserveAspectRatio="xMidYMid meet">
<metadata>
Created by potrace 1.14, written by Peter Selinger 2001-2017
</metadata>
<g transform="translate(0.000000,261.000000) scale(0.100000,-0.100000)"
fill="#000000" stroke="none">
<path d="M1100 2340 c-52 -10 -108 -23 -125 -28 -294 -94 -531 -293 -659 -555
-248 -507 -63 -1099 433 -1387 232 -134 529 -177 796 -115 384 89 692 376 799
745 37 132 51 288 35 403 -16 119 -22 143 -49 223 -90 266 -282 485 -535 613
-84 42 -215 88 -275 97 -19 3 -42 7 -50 10 -8 3 -73 7 -145 9 -96 2 -155 -2
-225 -15z m364 -216 c111 -23 211 -62 300 -117 l39 -25 -117 -113 c-65 -63
-124 -117 -131 -122 -7 -4 -35 2 -62 14 -141 62 -273 70 -407 25 -227 -77
-366 -269 -371 -515 -4 -194 119 -399 287 -480 104 -49 255 -75 338 -58 62 13
94 23 153 50 39 17 72 26 75 21 4 -5 58 -51 120 -103 87 -73 110 -97 101 -107
-17 -21 -188 -100 -256 -118 -221 -60 -466 -31 -663 77 -271 148 -442 426
-444 722 -1 159 29 283 101 415 121 223 364 397 608 436 22 3 41 7 43 9 10 9
229 1 286 -11z m615 -469 c135 -272 111 -596 -62 -838 l-35 -48 -103 87 c-57
49 -106 91 -109 94 -3 3 -39 34 -81 68 -108 87 -154 90 -243 15 -115 -97 -294
-85 -406 27 -144 144 -102 394 83 484 112 55 202 44 329 -40 44 -30 89 -54
100 -54 43 0 90 37 253 199 l170 170 27 -32 c15 -18 50 -77 77 -132z"/>
</g>
</svg>
