<svg width="242" height="242" viewBox="0 0 242 242" fill="none" xmlns="http://www.w3.org/2000/svg">
<rect width="242" height="242" fill="black"/>
<path fill-rule="evenodd" clip-rule="evenodd" d="M152.68 75.5371C151.244 75.5045 149.374 75.5 146.804 75.5L123.5 75.5H103.5L118.736 91.659L101.273 166.5H127.764C129.154 166.5 130.233 166.5 131.164 166.486C131.274 166.485 131.378 166.483 131.479 166.481C131.504 166.384 131.529 166.282 131.556 166.176C131.78 165.272 132.025 164.222 132.341 162.868L151.381 81.268C151.965 78.7652 152.386 76.9436 152.68 75.5371ZM157.729 46.7694C161.051 47.0621 165.336 47.7732 169.502 50.2708C175.017 53.5766 179.142 58.7746 181.108 64.8963C182.594 69.5215 182.312 73.8561 181.843 77.1572C181.409 80.2082 180.577 83.7714 179.736 87.3732L179.623 87.8576L160.5 169.812L160.5 169.812C159.955 172.152 159.384 174.597 158.734 176.685C157.996 179.053 156.894 181.875 154.864 184.649C152.048 188.497 148.245 191.515 143.857 193.383C140.695 194.729 137.696 195.161 135.223 195.342C133.042 195.501 130.531 195.5 128.128 195.5H128.128L64.7272 195.5L94.2274 69.0704L94 69L73 46.5H115V46.5H146.804L147.301 46.4999C151 46.4994 154.659 46.4988 157.729 46.7694Z" fill="white"/>
</svg>
