<svg width="758" height="256" viewBox="0 0 758 256" fill="none" xmlns="http://www.w3.org/2000/svg">
<path d="M287.248 162.824C280.656 162.824 275.056 161.608 270.448 159.176C265.904 156.68 262.448 153.16 260.08 148.616C257.712 144.072 256.528 138.696 256.528 132.488V90.92H272.272V133.064C272.272 137.672 273.552 141.352 276.112 144.104C278.736 146.792 282.448 148.136 287.248 148.136C292.048 148.136 295.728 146.792 298.288 144.104C300.912 141.416 302.224 137.736 302.224 133.064V90.92H317.968V132.488C317.968 138.696 316.784 144.072 314.416 148.616C312.048 153.16 308.592 156.68 304.048 159.176C299.504 161.608 293.904 162.824 287.248 162.824ZM331.539 161V108.392H343.731V121.832C345.843 111.784 351.763 106.76 361.491 106.76H362.163C368.243 106.76 372.915 108.776 376.179 112.808C379.443 116.776 381.075 122.824 381.075 130.952V161H365.715V130.088C365.715 127.272 364.883 124.968 363.219 123.176C361.555 121.384 359.315 120.488 356.499 120.488C353.619 120.488 351.283 121.416 349.491 123.272C347.763 125.064 346.899 127.432 346.899 130.376V161H331.539ZM402.525 161L388.413 108.392H403.485L413.373 148.232H415.485L422.685 110.12H439.485L447.741 148.232H449.757L458.685 108.392H472.797L460.125 161H438.717L430.845 126.44L423.837 161H402.525ZM505.167 162.824C500.687 162.824 496.719 162.056 493.263 160.52C489.871 158.984 487.023 156.936 484.719 154.376C482.415 151.752 480.687 148.84 479.535 145.64C478.383 142.376 477.807 139.048 477.807 135.656V133.736C477.807 130.28 478.383 126.92 479.535 123.656C480.687 120.392 482.415 117.48 484.719 114.92C487.023 112.36 489.807 110.344 493.071 108.872C496.399 107.336 500.239 106.568 504.591 106.568C510.223 106.568 514.959 107.848 518.799 110.408C522.703 112.904 525.679 116.2 527.727 120.296C529.775 124.392 530.799 128.808 530.799 133.544V138.728H492.303C492.815 142.312 494.095 145.16 496.143 147.272C498.255 149.32 501.263 150.344 505.167 150.344C507.919 150.344 510.191 149.832 511.983 148.808C513.839 147.72 515.087 146.344 515.727 144.68H529.839C528.687 150.056 525.903 154.44 521.487 157.832C517.135 161.16 511.695 162.824 505.167 162.824ZM504.591 119.048C501.263 119.048 498.543 120.008 496.431 121.928C494.383 123.784 493.071 126.472 492.495 129.992H516.111C515.599 126.472 514.351 123.784 512.367 121.928C510.447 120.008 507.855 119.048 504.591 119.048ZM555.953 162.344C550.257 162.344 545.649 160.872 542.129 157.928C538.673 154.984 536.945 150.824 536.945 145.448C536.945 141.608 537.937 138.472 539.921 136.04C541.905 133.544 544.689 131.72 548.273 130.568C551.857 129.352 555.985 128.744 560.657 128.744H570.161V128.552C570.161 123.176 567.473 120.488 562.097 120.488C560.689 120.488 558.833 120.552 556.529 120.68C554.225 120.744 551.825 120.84 549.329 120.968C546.897 121.032 544.721 121.128 542.801 121.256V108.296C545.041 108.104 547.793 107.944 551.057 107.816C554.321 107.624 557.329 107.528 560.081 107.528C568.145 107.528 574.289 109.256 578.513 112.712C582.801 116.104 584.945 121.448 584.945 128.744V161H572.753V151.112C571.601 154.76 569.617 157.544 566.801 159.464C563.985 161.384 560.369 162.344 555.953 162.344ZM560.561 151.688C563.057 151.688 565.233 150.984 567.089 149.576C568.945 148.168 569.969 145.48 570.161 141.512V137.288H560.561C557.873 137.288 555.793 137.96 554.321 139.304C552.913 140.648 552.209 142.408 552.209 144.584C552.209 146.696 552.913 148.424 554.321 149.768C555.793 151.048 557.873 151.688 560.561 151.688ZM607.309 161L591.565 108.392H607.405L618.637 148.232H620.845L630.541 108.392H645.325L631.693 161H607.309ZM677.292 162.824C672.812 162.824 668.844 162.056 665.388 160.52C661.996 158.984 659.148 156.936 656.844 154.376C654.54 151.752 652.812 148.84 651.66 145.64C650.508 142.376 649.932 139.048 649.932 135.656V133.736C649.932 130.28 650.508 126.92 651.66 123.656C652.812 120.392 654.54 117.48 656.844 114.92C659.148 112.36 661.932 110.344 665.196 108.872C668.524 107.336 672.364 106.568 676.716 106.568C682.348 106.568 687.084 107.848 690.924 110.408C694.828 112.904 697.804 116.2 699.852 120.296C701.9 124.392 702.924 128.808 702.924 133.544V138.728H664.428C664.94 142.312 666.22 145.16 668.268 147.272C670.38 149.32 673.388 150.344 677.292 150.344C680.044 150.344 682.316 149.832 684.108 148.808C685.964 147.72 687.212 146.344 687.852 144.68H701.964C700.812 150.056 698.028 154.44 693.612 157.832C689.26 161.16 683.82 162.824 677.292 162.824ZM676.716 119.048C673.388 119.048 670.668 120.008 668.556 121.928C666.508 123.784 665.196 126.472 664.62 129.992H688.236C687.724 126.472 686.476 123.784 684.492 121.928C682.572 120.008 679.98 119.048 676.716 119.048Z" fill="#081131"/>
<g filter="url(#filter0_d)">
<path d="M113.037 232.167C118.091 188.729 115.022 207.854 115.564 182.822C115.929 165.961 115.022 155.982 119.986 139.865C122.59 131.413 129.058 127.859 128.83 119.018C128.566 108.74 114.013 106.44 115.564 96.2763C116.414 90.7098 118.639 87.7288 122.513 83.642C125.433 80.5616 127.113 77.3378 131.357 77.3248C133.698 77.3177 136.817 76.8904 137.043 79.22C137.277 81.6384 133.731 81.2272 131.357 81.7468C126.569 82.7951 122.169 83.0118 119.062 79.22C117.256 77.0149 116.114 75.0309 116.828 72.2711C117.571 69.395 119.768 68.352 122.513 67.2173C128.065 64.9228 131.848 69.2532 137.043 72.2711C140.841 74.4776 143.536 75.5092 145.887 79.22C148.192 82.8598 148.854 85.6733 148.414 89.9592C147.973 94.245 139.811 94.1694 133.884 94.3812C125.227 94.6905 120.231 91.6272 113.037 86.8006C107.243 82.9127 103.391 80.4717 100.403 74.1662C97.1209 67.2409 94.4571 60.6498 99.1395 54.583C101.907 50.9978 104.72 49.013 109.247 48.8975C113.991 48.7766 116.407 51.4671 119.986 54.583C123.447 57.5961 126.935 64.0587 126.935 64.0587C126.935 64.0587 136.36 76.945 143.36 74.1662C143.36 74.1662 150.217 70.4656 147.15 64.0587C144.083 57.6518 137.163 58.4293 130.094 57.7416C123.392 57.0896 117.662 55.3745 113.037 60.2684C110.456 62.9994 109.559 65.3678 109.247 69.1125C108.806 74.4082 110.824 77.7279 114.301 81.7468C117.777 85.7658 134.164 91.0417 143.36 86.8006C152.556 82.5595 157.889 65.3222 157.889 65.3222C157.889 65.3222 159.924 57.6751 159.784 52.6878C159.613 46.5872 159.164 42.7419 155.994 37.5266C152.631 31.9929 149.408 29.1019 143.36 26.7874C138.499 24.9274 135.001 23.7908 130.094 25.524C125.187 27.2572 121.855 29.5213 121.25 34.368C120.282 42.1091 137.485 38.777 140.201 40.6852C142.917 42.5934 144.883 43.8386 145.887 47.0024C146.941 50.328 145.875 52.5897 144.623 55.8464C142.923 60.27 140.51 62.092 137.043 65.3222C133.538 68.5872 131.383 70.4931 126.935 72.2711C122.302 74.123 119.105 75.5133 114.301 74.1662C109.251 72.7501 105.363 70.435 104.193 65.3222C103.023 60.2094 114.068 49.5702 124.408 47.0024C129.676 45.6942 133.025 45.7487 138.306 47.0024C144.321 48.4304 147.892 50.1521 152.204 54.583C157.923 60.4604 159.551 65.9688 159.784 74.1662C159.934 79.438 159.948 82.8961 157.257 87.4323C155.3 90.7332 153.519 92.2787 150.309 94.3812C145.002 97.8559 140.847 97.7925 134.516 98.1715C124.953 98.7439 119.342 96.8296 110.51 93.1177C101.679 89.4059 87.8002 69.2169 90.2955 60.2684C92.7907 51.3199 102.861 43.5175 114.301 37.5266C125.741 31.5357 144.402 30.8447 147.15 34.368C149.898 37.8913 149.012 41.3112 148.414 45.7389C148.141 47.755 147.858 48.8856 147.15 50.7927" stroke="#081131" stroke-width="4"/>
</g>
<defs>
<filter id="filter0_d" x="84" y="22.6672" width="81.8382" height="217.731" filterUnits="userSpaceOnUse" color-interpolation-filters="sRGB">
<feFlood flood-opacity="0" result="BackgroundImageFix"/>
<feColorMatrix in="SourceAlpha" type="matrix" values="0 0 0 0 0 0 0 0 0 0 0 0 0 0 0 0 0 0 127 0"/>
<feOffset dy="4"/>
<feGaussianBlur stdDeviation="2"/>
<feColorMatrix type="matrix" values="0 0 0 0 0 0 0 0 0 0 0 0 0 0 0 0 0 0 0.25 0"/>
<feBlend mode="normal" in2="BackgroundImageFix" result="effect1_dropShadow"/>
<feBlend mode="normal" in="SourceGraphic" in2="effect1_dropShadow" result="shape"/>
</filter>
</defs>
</svg>
